<?xml version="1.0" standalone="no"?>
<!DOCTYPE svg PUBLIC "-//W3C//DTD SVG 20010904//EN"
 "http://www.w3.org/TR/2001/REC-SVG-20010904/DTD/svg10.dtd">
<svg version="1.0" xmlns="http://www.w3.org/2000/svg"
 width="425.000000pt" height="425.000000pt" viewBox="0 0 425.000000 425.000000"
 preserveAspectRatio="xMidYMid meet">

<g transform="translate(0.000000,425.000000) scale(0.100000,-0.100000)"
fill="#F65E77" stroke="none">
<path d="M2092 4238 c-12 -6 -60 -73 -108 -152 -115 -189 -171 -266 -192 -266
-25 0 -139 73 -282 180 -98 73 -128 90 -156 90 -40 0 -84 -37 -84 -70 0 -12
-13 -79 -29 -148 -16 -70 -32 -149 -36 -177 -3 -27 -11 -67 -16 -87 -10 -37
-11 -38 -58 -38 -51 0 -183 25 -320 60 -107 27 -146 26 -176 -5 -33 -32 -32
-64 9 -315 19 -113 32 -208 30 -212 -3 -5 -18 -8 -34 -8 -34 0 -237 -52 -335
-86 -76 -26 -115 -60 -115 -100 0 -33 10 -50 90 -158 79 -106 180 -260 180
-273 0 -13 -173 -153 -257 -207 -39 -25 -81 -46 -93 -46 -58 0 -108 -59 -94
-113 9 -39 45 -65 206 -152 142 -77 222 -127 233 -145 14 -23 -140 -272 -229
-369 -61 -66 -71 -105 -41 -148 21 -30 58 -39 275 -64 102 -12 199 -27 217
-34 32 -13 32 -14 27 -67 -11 -108 -57 -325 -80 -381 -22 -53 -23 -60 -10 -91
30 -72 66 -72 286 -1 169 55 240 66 280 45 30 -16 50 -105 75 -333 8 -76 20
-147 26 -158 13 -25 74 -52 99 -44 10 3 64 42 121 86 197 152 228 171 272 176
41 4 43 3 88 -54 77 -98 157 -221 175 -271 20 -56 65 -102 99 -102 42 0 81 49
156 198 77 151 128 221 178 242 27 11 37 8 120 -35 118 -61 226 -138 243 -172
17 -35 55 -55 92 -48 65 12 76 39 133 318 31 153 41 186 53 181 48 -18 276
-67 340 -73 152 -13 200 10 200 95 0 24 -18 132 -40 240 -22 108 -40 204 -40
214 0 10 8 20 18 23 177 51 293 79 362 87 68 8 89 14 108 34 54 53 16 148
-160 393 -32 44 -58 83 -58 86 0 2 35 28 78 58 124 85 255 185 287 219 41 43
41 97 0 140 -42 45 -155 128 -258 190 -49 30 -90 57 -93 62 -3 4 23 54 57 110
165 271 194 353 146 402 -26 26 -301 122 -378 132 -75 10 -75 11 -53 106 14
63 19 120 19 235 0 146 -1 152 -24 177 -20 21 -34 26 -72 26 -49 0 -367 -51
-426 -69 l-32 -9 -11 71 c-44 263 -79 387 -120 419 -67 53 -238 -18 -421 -174
-31 -26 -61 -48 -66 -48 -6 0 -66 84 -134 186 -67 102 -136 197 -152 210 -31
26 -58 29 -95 12z m98 -326 c25 -37 73 -112 107 -167 74 -117 102 -145 147
-145 37 0 55 12 220 144 60 48 127 96 147 107 l39 19 4 -22 c3 -13 10 -45 15
-73 6 -27 22 -119 36 -202 26 -161 34 -186 65 -203 28 -15 62 -12 168 14 53
14 140 32 192 41 52 8 106 18 119 21 l24 5 -7 -73 c-12 -121 -35 -220 -66
-282 -39 -76 -39 -109 0 -148 30 -29 32 -30 98 -23 39 4 95 2 132 -5 79 -14
230 -61 230 -72 0 -11 -113 -209 -149 -261 -16 -23 -47 -61 -70 -84 -75 -75
-55 -110 122 -215 149 -88 237 -146 237 -157 0 -11 -243 -183 -305 -215 -72
-39 -85 -54 -85 -96 0 -27 10 -51 33 -83 17 -25 64 -91 104 -146 72 -101 97
-141 91 -145 -2 -2 -100 -31 -218 -64 -235 -67 -250 -76 -250 -142 0 -20 18
-123 40 -229 22 -105 40 -196 40 -202 0 -17 -71 -5 -250 40 -161 41 -169 41
-170 -4 -1 -35 -15 -47 -55 -44 -26 3 -40 -1 -46 -11 -4 -8 -20 -80 -35 -160
-15 -80 -30 -150 -33 -157 -4 -7 -35 6 -91 40 -249 149 -345 152 -480 17 -42
-41 -80 -92 -103 -137 -21 -40 -42 -75 -46 -78 -5 -3 -34 30 -64 74 -80 113
-161 198 -205 212 -105 35 -211 2 -358 -111 l-79 -61 -8 53 c-33 238 -76 334
-172 386 -51 28 -230 22 -330 -11 -43 -14 -81 -25 -82 -23 -2 2 3 34 11 72 22
104 37 263 30 310 -9 64 -36 99 -98 129 -53 26 -231 64 -303 65 -18 0 -33 4
-33 9 0 6 27 52 60 103 66 101 124 215 134 265 19 85 -73 186 -266 292 -29 16
-54 33 -55 38 -1 4 16 21 40 37 63 45 176 138 240 198 52 49 57 58 57 96 0 54
-25 104 -134 265 -47 70 -86 130 -86 135 0 7 86 33 195 58 33 7 94 13 136 14
61 0 79 4 97 20 29 27 38 67 23 104 -29 71 -90 381 -77 393 2 2 30 -3 62 -11
107 -28 254 -47 303 -40 129 19 171 75 206 279 17 103 33 165 42 165 3 0 29
-17 57 -38 68 -51 192 -127 238 -146 53 -22 113 -20 159 6 44 25 132 133 203
251 26 42 51 77 54 77 4 0 27 -31 52 -68z"/>
<path d="M1788 3290 c-43 -23 -53 -39 -62 -95 -16 -97 25 -503 89 -875 45
-268 65 -404 79 -540 14 -145 19 -161 61 -200 25 -24 33 -25 175 -28 239 -5
235 -10 279 378 17 146 42 362 55 480 14 118 32 271 40 340 28 245 40 419 30
447 -18 52 -50 65 -221 84 -87 10 -232 20 -323 24 -154 5 -168 4 -202 -15z
m362 -233 l135 -12 3 -31 c3 -30 -29 -331 -83 -789 -14 -115 -31 -259 -38
-319 -6 -60 -17 -111 -23 -113 -7 -2 -17 42 -28 124 -9 70 -34 236 -56 368
-58 351 -80 520 -95 713 l-5 72 27 -1 c16 0 89 -6 163 -12z"/>
<path d="M2045 1468 c-72 -27 -127 -94 -160 -197 -39 -121 17 -261 133 -328
36 -21 61 -28 126 -31 102 -5 173 19 244 83 162 146 99 369 -128 456 -64 25
-172 33 -215 17z m174 -227 c19 -9 41 -27 49 -39 13 -20 12 -24 -16 -51 -70
-71 -172 -41 -172 50 0 68 53 83 139 40z"/>
</g>
</svg>
