<?xml version="1.0" standalone="no"?>
<!DOCTYPE svg PUBLIC "-//W3C//DTD SVG 20010904//EN"
 "http://www.w3.org/TR/2001/REC-SVG-20010904/DTD/svg10.dtd">
<svg version="1.0" xmlns="http://www.w3.org/2000/svg"
 width="512.000000pt" height="512.000000pt" viewBox="0 0 512.000000 512.000000"
 preserveAspectRatio="xMidYMid meet">

<g transform="translate(0.000000,512.000000) scale(0.100000,-0.100000)"
fill="#F65E77" stroke="none">
<path d="M2480 5070 c-43 -24 -1686 -1445 -1713 -1481 -51 -70 -23 -187 57
-234 36 -21 56 -25 119 -25 l77 0 0 -600 0 -600 -48 0 c-46 0 -48 1 -71 45
-13 24 -39 56 -57 70 -69 53 -83 55 -377 55 l-273 0 -52 -26 c-29 -14 -65 -42
-82 -62 -63 -77 -61 -34 -58 -1078 l3 -949 22 -40 c25 -47 74 -95 123 -121 32
-17 61 -19 320 -19 310 0 316 1 380 61 l26 24 1144 2 c1143 3 1145 3 1201 24
31 12 71 30 90 39 97 49 1688 1025 1716 1053 18 18 45 56 60 85 23 44 27 65
27 137 1 70 -4 94 -24 135 -52 106 -153 174 -271 183 -62 4 -81 -1 -385 -102
-176 -58 -323 -106 -327 -106 -4 0 -7 403 -7 895 l0 895 77 0 c63 0 83 4 119
25 77 45 107 158 60 229 -9 14 -70 72 -135 128 l-119 103 -2 490 c-1 515 -3
538 -47 587 -10 11 -36 29 -58 39 -35 16 -69 19 -284 19 -227 0 -248 -1 -287
-21 -78 -37 -88 -67 -94 -268 l-5 -173 -328 283 c-181 156 -343 292 -360 302
-41 22 -113 21 -157 -3z m905 -860 l816 -705 -578 -5 c-596 -5 -612 -6 -627
-46 -12 -30 -6 -72 13 -95 l19 -24 449 -5 448 -5 0 -924 0 -924 -280 -94
c-154 -51 -288 -96 -297 -99 -17 -5 -18 17 -18 359 0 399 -8 481 -56 603 -67
167 -210 322 -368 399 -130 64 -197 80 -346 80 -149 0 -216 -16 -346 -80 -158
-77 -301 -232 -368 -399 -32 -82 -56 -215 -56 -317 l0 -79 -47 24 c-27 13 -77
45 -112 71 -123 91 -240 144 -371 169 l-65 12 0 600 0 599 108 5 c99 5 111 7
128 29 26 32 24 74 -5 108 l-24 28 -242 5 -241 5 818 707 c450 389 821 706
825 705 4 -1 374 -319 823 -707z m543 167 c2 -308 -1 -398 -10 -395 -6 2 -103
83 -215 179 l-202 174 -1 223 0 222 213 -2 212 -3 3 -398z m-1224 -1837 c43
-11 105 -34 139 -52 85 -45 203 -164 245 -248 65 -129 65 -133 69 -597 l4
-421 -33 -10 c-18 -6 -54 -14 -80 -17 l-46 -7 5 98 c4 80 1 111 -15 160 -38
120 -130 227 -244 285 -106 54 -147 59 -443 59 -148 0 -287 3 -309 7 l-39 6 6
131 c6 146 21 210 69 306 42 84 160 203 245 248 132 70 286 88 427 52z m-1966
-430 c12 -11 24 -31 27 -43 3 -12 4 -433 3 -935 l-3 -914 -28 -24 c-28 -24
-29 -24 -268 -24 l-241 0 -29 29 -29 29 0 917 c0 789 2 920 15 945 8 15 20 30
27 33 7 3 124 6 259 6 233 1 246 0 267 -19z m505 -166 c99 -22 186 -64 283
-134 102 -75 196 -122 310 -156 87 -26 97 -27 424 -33 l336 -6 66 -33 c147
-72 215 -223 158 -349 l-19 -43 -318 0 c-348 0 -409 -8 -539 -65 -79 -35 -200
-111 -219 -138 -22 -32 -19 -80 8 -105 40 -37 66 -36 132 4 106 65 139 82 205
106 64 22 75 23 555 28 l490 5 834 279 c897 300 874 294 940 247 38 -28 66
-98 57 -146 -4 -20 -21 -52 -39 -70 -37 -39 -1623 -1007 -1712 -1045 l-60 -25
-1097 -3 -1098 -2 0 850 0 850 116 0 c70 0 143 -6 187 -16z"/>
<path d="M2165 3987 c-23 -19 -28 -34 -35 -100 -15 -133 -80 -242 -184 -313
-60 -41 -160 -74 -223 -74 -36 0 -50 -6 -74 -29 -31 -31 -36 -55 -18 -94 15
-32 41 -44 112 -51 159 -17 304 -124 358 -267 11 -28 24 -83 29 -121 10 -86
35 -118 90 -118 55 0 76 29 88 123 26 202 168 348 364 378 90 13 119 27 136
62 12 24 11 33 -5 65 -19 39 -15 38 -148 61 -89 16 -175 62 -234 126 -65 72
-99 145 -113 247 -9 62 -17 88 -34 105 -30 30 -75 30 -109 0z m77 -405 c17
-29 118 -127 156 -152 22 -15 22 -15 -33 -57 -30 -24 -76 -70 -101 -102 l-46
-60 -42 57 c-24 31 -68 77 -100 101 l-58 45 29 20 c50 37 110 95 138 136 15
22 31 40 34 40 4 0 14 -12 23 -28z"/>
<path d="M965 5005 c-24 -23 -25 -30 -25 -139 0 -106 2 -117 24 -142 33 -39
89 -39 123 0 24 28 24 34 21 148 -3 112 -5 121 -27 139 -33 27 -86 25 -116 -6z"/>
<path d="M625 4665 c-37 -36 -34 -86 6 -119 28 -24 37 -26 132 -26 62 0 112 5
127 13 54 27 63 94 20 137 -18 18 -34 20 -140 20 -115 0 -122 -1 -145 -25z"/>
<path d="M1135 4665 c-32 -31 -32 -75 -1 -112 24 -28 25 -28 146 -28 121 0
122 0 146 28 31 37 31 81 -1 112 -23 24 -30 25 -145 25 -115 0 -122 -1 -145
-25z"/>
<path d="M965 4495 c-24 -23 -25 -30 -25 -140 0 -115 0 -117 29 -146 18 -17
40 -29 56 -29 16 0 38 12 56 29 28 29 29 32 29 136 0 110 -12 156 -45 169 -35
13 -76 6 -100 -19z"/>
<path d="M4295 2875 c-18 -17 -25 -35 -25 -61 0 -31 9 -46 73 -111 74 -78 122
-108 154 -96 38 13 63 46 63 83 0 33 -9 45 -89 123 -100 98 -130 109 -176 62z"/>
<path d="M4743 2818 c-99 -98 -113 -134 -70 -183 19 -22 33 -29 62 -29 33 0
45 9 126 91 101 102 109 125 60 174 -51 51 -80 42 -178 -53z"/>
<path d="M4445 2506 c-16 -7 -63 -47 -102 -89 -66 -68 -73 -79 -73 -115 0 -32
6 -45 26 -61 51 -40 78 -30 175 66 80 78 89 90 89 123 0 62 -59 101 -115 76z"/>
<path d="M4693 2501 c-38 -24 -50 -68 -30 -108 8 -15 49 -61 90 -100 88 -85
118 -93 168 -44 49 49 41 72 -58 172 -49 49 -99 91 -113 94 -16 3 -37 -2 -57
-14z"/>
</g>
</svg>
