<?xml version="1.0" standalone="no"?>
<!DOCTYPE svg PUBLIC "-//W3C//DTD SVG 20010904//EN"
 "http://www.w3.org/TR/2001/REC-SVG-20010904/DTD/svg10.dtd">
<svg version="1.0" xmlns="http://www.w3.org/2000/svg"
 width="512.000000pt" height="512.000000pt" viewBox="0 0 512.000000 512.000000"
 preserveAspectRatio="xMidYMid meet">

<g transform="translate(0.000000,512.000000) scale(0.100000,-0.100000)"
fill="#F65E77" stroke="none">
<path d="M2205 5107 c-61 -21 -103 -45 -149 -87 -70 -64 -98 -73 -195 -66
-149 11 -277 -42 -339 -141 -82 -132 -94 -142 -217 -173 -152 -39 -232 -124
-270 -286 -18 -77 -47 -122 -102 -154 -86 -51 -114 -74 -147 -123 -49 -73 -67
-149 -59 -256 7 -100 -3 -126 -69 -199 -100 -109 -121 -247 -60 -394 18 -42
32 -90 32 -106 0 -17 -15 -66 -32 -109 -28 -66 -33 -90 -32 -158 0 -97 26
-163 97 -241 26 -28 51 -63 57 -78 5 -14 9 -77 8 -139 -2 -104 0 -117 26 -174
31 -69 97 -138 163 -171 65 -33 99 -81 117 -162 28 -123 84 -205 171 -251 25
-13 45 -28 45 -33 0 -5 -120 -254 -266 -553 -288 -591 -286 -586 -224 -618 24
-13 61 -13 286 -1 240 13 260 13 271 -2 7 -9 74 -105 150 -212 76 -107 150
-201 165 -209 20 -12 34 -13 55 -5 25 8 58 72 297 560 l269 551 64 6 c37 4 91
19 132 37 88 38 134 38 221 0 38 -17 97 -33 135 -37 l67 -8 264 -540 c145
-297 273 -548 285 -557 22 -19 46 -22 73 -12 9 4 84 102 167 220 83 117 153
215 157 218 4 2 117 -2 252 -10 135 -7 253 -13 263 -14 26 0 67 45 67 74 0 14
-117 265 -260 558 -143 292 -262 539 -265 547 -3 11 9 24 40 40 87 46 143 128
171 251 18 81 52 129 117 162 66 33 132 102 163 171 26 57 28 70 26 174 -1 62
3 125 8 139 6 15 31 50 57 78 71 78 97 144 97 241 1 68 -4 92 -32 158 -17 43
-32 92 -32 109 0 16 14 64 32 106 61 145 39 285 -60 394 -65 71 -76 100 -69
193 12 179 -44 293 -185 373 -73 41 -104 82 -123 166 -21 88 -53 152 -102 197
-56 52 -86 68 -168 89 -123 31 -135 41 -217 173 -62 99 -190 152 -339 141 -98
-8 -125 2 -197 68 -24 22 -69 52 -100 66 -48 23 -71 27 -142 27 -73 0 -94 -4
-150 -30 -84 -39 -135 -39 -220 -1 -76 34 -181 44 -245 23z m202 -169 c64 -27
91 -32 153 -32 62 0 89 5 153 32 120 49 171 41 263 -40 93 -81 127 -93 274
-94 136 -1 163 -8 211 -61 15 -15 34 -43 43 -61 25 -48 83 -109 131 -137 23
-14 76 -33 119 -44 42 -11 88 -27 102 -35 37 -25 71 -85 84 -151 22 -109 82
-193 175 -246 110 -62 135 -114 128 -259 -6 -120 14 -179 91 -269 85 -98 94
-159 38 -278 -22 -49 -27 -71 -26 -143 0 -74 4 -94 32 -157 50 -111 41 -158
-47 -264 -74 -88 -92 -146 -89 -283 1 -87 -2 -118 -15 -142 -19 -37 -64 -77
-116 -104 -80 -41 -153 -143 -171 -241 -22 -113 -65 -159 -174 -184 -126 -29
-208 -90 -270 -197 -29 -51 -76 -93 -116 -103 -14 -3 -80 -7 -145 -8 -137 -3
-164 -12 -267 -98 -93 -77 -152 -84 -265 -31 -49 23 -71 27 -143 27 -72 0 -94
-4 -143 -27 -113 -53 -172 -46 -265 31 -103 86 -130 95 -267 98 -65 1 -131 5
-145 8 -40 10 -87 52 -116 103 -62 107 -144 168 -270 197 -109 25 -152 71
-174 184 -18 98 -91 200 -171 241 -52 27 -97 67 -116 104 -13 24 -16 55 -15
142 3 137 -15 195 -89 283 -88 106 -97 153 -47 264 28 63 32 83 32 157 1 72
-4 94 -26 143 -56 119 -47 180 38 278 77 90 97 149 91 269 -7 140 22 203 116
251 53 27 114 85 142 134 14 23 33 76 44 119 30 120 70 162 180 185 114 24
198 82 248 170 67 117 101 134 263 135 147 1 181 13 274 95 92 80 144 88 263
39z m-961 -3400 c17 -18 42 -54 57 -79 24 -43 92 -112 132 -135 18 -10 15 -21
-63 -182 -45 -95 -82 -182 -82 -194 0 -29 38 -68 67 -68 48 0 64 22 153 203
50 100 95 188 100 195 15 17 133 16 173 -3 18 -8 54 -34 81 -59 l49 -45 -229
-470 c-126 -259 -232 -470 -235 -471 -3 0 -61 79 -128 175 -68 97 -132 180
-143 186 -13 7 -85 7 -234 -1 -119 -7 -217 -10 -218 -8 -5 5 477 988 484 988
3 0 20 -15 36 -32z m2518 -467 c130 -266 234 -486 232 -489 -3 -2 -101 1 -219
8 -164 8 -220 8 -234 0 -10 -7 -72 -89 -139 -183 -66 -95 -124 -171 -128 -170
-5 1 -112 212 -238 469 l-228 468 47 43 c27 24 62 50 80 58 34 16 149 20 169
7 6 -4 55 -93 107 -198 53 -105 103 -194 112 -198 53 -20 105 12 105 63 0 16
-36 105 -81 198 -72 152 -79 169 -63 178 42 24 109 94 136 142 32 57 86 109
99 96 4 -4 114 -226 243 -492z"/>
<path d="M2897 4277 c-55 -17 -104 -61 -133 -120 -100 -199 -263 -380 -405
-452 -63 -32 -90 -31 -140 4 -61 45 -119 53 -334 49 -161 -3 -195 -6 -225 -22
-49 -26 -88 -64 -113 -111 -22 -40 -22 -47 -25 -639 -3 -659 -3 -665 58 -738
16 -20 51 -47 77 -60 44 -21 64 -23 223 -26 204 -4 273 5 334 47 l43 30 539 3
539 3 48 23 c60 30 104 83 123 151 15 49 15 60 1 116 l-16 63 39 41 c27 28 45
60 56 99 16 53 16 62 1 118 l-16 62 39 41 c27 28 45 60 56 99 16 53 16 61 1
120 l-17 62 40 40 c90 90 87 245 -7 331 -67 63 -72 64 -380 67 -156 2 -283 5
-283 6 0 2 16 39 36 82 49 106 100 241 108 284 16 90 -54 197 -149 226 -56 16
-67 16 -118 1z m83 -147 c42 -23 43 -44 4 -147 -37 -101 -107 -247 -150 -315
-29 -46 -31 -91 -4 -118 19 -19 33 -20 360 -20 375 0 386 -2 410 -60 15 -37 0
-81 -33 -98 -12 -7 -87 -13 -168 -14 -167 -3 -189 -12 -189 -75 0 -59 25 -73
135 -73 114 0 156 -14 174 -59 11 -25 11 -37 1 -61 -7 -17 -18 -34 -24 -38 -6
-4 -81 -9 -167 -12 -178 -6 -199 -14 -199 -77 0 -59 25 -73 135 -73 115 0 156
-14 175 -59 11 -28 11 -37 -3 -66 -22 -46 -60 -55 -224 -55 -125 0 -133 -1
-147 -22 -21 -30 -20 -71 3 -99 17 -21 28 -23 140 -28 107 -5 124 -8 137 -26
39 -53 19 -117 -44 -135 -25 -7 -192 -10 -512 -8 l-475 3 -3 381 c-2 367 -3
382 -22 399 -28 25 -76 23 -103 -4 -22 -21 -22 -25 -25 -415 l-3 -393 -25 -24
c-25 -23 -32 -24 -192 -27 -192 -4 -234 4 -257 48 -22 42 -23 1156 -1 1199 24
45 52 51 237 51 232 0 232 0 243 -140 5 -73 26 -100 77 -100 47 0 69 31 69 96
0 50 3 57 23 62 44 11 153 74 226 130 116 89 243 247 320 399 38 77 62 94 101
73z"/>
<path d="M1867 2612 c-23 -25 -22 -85 1 -105 25 -23 85 -22 105 1 23 25 22 85
-1 105 -25 23 -85 22 -105 -1z"/>
</g>
</svg>
