<?xml version="1.0" standalone="no"?>
<!DOCTYPE svg PUBLIC "-//W3C//DTD SVG 20010904//EN"
 "http://www.w3.org/TR/2001/REC-SVG-20010904/DTD/svg10.dtd">
<svg version="1.0" xmlns="http://www.w3.org/2000/svg"
 width="512.000000pt" height="512.000000pt" viewBox="0 0 512.000000 512.000000"
 preserveAspectRatio="xMidYMid meet">

<g transform="translate(0.000000,512.000000) scale(0.100000,-0.100000)"
fill="#F65E77" stroke="none">
<path d="M2522 5108 c-22 -11 -33 -39 -46 -119 -16 -93 -129 -189 -222 -189
-60 0 -101 -49 -82 -99 12 -34 35 -48 89 -54 125 -15 202 -98 224 -240 8 -48
36 -77 75 -77 39 0 67 29 75 77 22 142 99 225 224 240 54 6 77 20 89 54 19 50
-22 99 -82 99 -93 0 -206 96 -222 189 -14 84 -24 108 -49 119 -31 14 -43 14
-73 0z m81 -341 l43 -43 -43 -43 -43 -42 -43 42 -43 43 41 42 c22 23 41 43 42
43 1 1 22 -18 46 -42z"/>
<path d="M844 4388 c-24 -11 -44 -48 -44 -80 0 -106 -122 -228 -228 -228 -48
0 -92 -40 -92 -84 0 -33 39 -63 91 -70 132 -18 208 -91 229 -223 11 -67 32
-93 75 -93 43 0 71 33 80 95 17 121 99 203 220 220 59 9 95 37 95 76 0 44 -28
68 -92 79 -71 11 -126 39 -166 84 -31 35 -62 117 -62 163 0 28 -42 73 -67 72
-10 0 -28 -5 -39 -11z m75 -427 l-42 -42 -43 42 -43 42 42 43 42 42 43 -42 43
-42 -42 -43z"/>
<path d="M2482 3990 c-82 -12 -191 -70 -256 -134 -81 -81 -126 -179 -140 -308
-5 -40 -16 -60 -67 -120 -67 -81 -129 -198 -156 -298 -16 -60 -17 -172 -21
-1545 -1 -814 0 -1495 3 -1513 7 -38 40 -72 71 -72 12 0 33 9 47 21 l26 20 3
1507 3 1507 23 68 c13 38 32 83 43 100 19 32 19 32 19 -348 0 -209 4 -408 9
-442 13 -87 53 -169 113 -230 68 -69 146 -104 265 -117 126 -13 258 1 339 38
118 53 205 173 225 309 5 34 9 233 9 442 0 380 0 380 19 348 11 -17 30 -62 42
-100 22 -66 23 -81 28 -620 7 -610 3 -583 70 -585 21 -1 40 7 54 21 l22 22 0
552 c0 544 0 553 -23 630 -35 121 -92 224 -174 313 -30 32 -39 52 -44 90 -14
130 -59 228 -139 309 -108 108 -262 158 -413 135z m-92 -295 c-80 -80 -147
-140 -149 -134 -7 21 22 100 53 143 55 77 145 135 211 136 28 0 20 -10 -115
-145z m365 85 c21 -16 50 -47 66 -67 l28 -38 -302 -302 c-166 -167 -305 -303
-309 -303 -5 0 -8 57 -8 127 l0 128 242 242 c134 134 243 243 244 243 1 0 18
-13 39 -30z m135 -417 l0 -128 -322 -322 c-178 -178 -326 -323 -330 -323 -5 0
-8 57 -8 127 l0 128 322 322 c178 178 326 323 330 323 5 0 8 -57 8 -127z m0
-481 l0 -127 -253 -253 -253 -253 -41 30 c-23 17 -53 47 -67 68 l-26 38 312
312 c172 172 316 313 320 313 5 0 8 -57 8 -128z m-5 -409 c-12 -102 -68 -185
-149 -218 -39 -17 -146 -30 -146 -19 0 12 282 294 294 294 4 0 5 -26 1 -57z"/>
<path d="M4213 3990 c-24 -10 -43 -39 -43 -68 0 -41 -33 -124 -62 -158 -40
-45 -95 -73 -166 -84 -124 -20 -125 -136 -2 -155 128 -20 209 -100 226 -223 8
-62 33 -92 78 -92 45 0 68 28 77 96 16 116 94 195 215 217 53 9 71 18 87 39
35 47 6 102 -61 114 -95 16 -117 26 -167 77 -48 50 -75 105 -75 155 0 34 -20
69 -47 81 -28 13 -30 13 -60 1z m72 -429 l-43 -43 -42 42 -42 42 42 43 43 44
43 -42 42 -42 -43 -44z"/>
<path d="M814 3190 c-138 -20 -253 -92 -330 -207 -52 -79 -74 -150 -81 -268
l-6 -100 -45 -50 c-58 -64 -102 -134 -135 -215 -56 -135 -57 -139 -57 -972 0
-552 3 -774 11 -792 22 -46 93 -51 125 -8 11 14 13 168 14 782 0 833 1 844 57
958 l28 57 5 -390 c5 -371 6 -393 27 -444 32 -79 71 -129 136 -177 92 -68 137
-79 317 -78 137 0 162 3 213 23 73 29 132 73 179 136 72 96 72 94 78 539 l5
400 27 -55 c60 -123 58 -79 58 -1219 0 -772 3 -1047 12 -1063 26 -50 69 -60
112 -26 l27 21 -3 1091 -3 1092 -23 65 c-39 106 -90 195 -153 264 l-59 64 0
78 c0 43 -7 107 -16 142 -58 229 -286 384 -520 352z m199 -178 c72 -31 138
-102 166 -178 20 -53 21 -74 21 -633 l0 -577 -27 -55 c-56 -108 -144 -145
-333 -137 -93 4 -112 8 -159 33 -60 33 -104 90 -121 156 -7 30 -10 223 -8 609
l3 565 26 56 c49 103 139 171 248 188 65 10 117 3 184 -27z"/>
<path d="M854 2950 c-26 -10 -54 -48 -54 -71 0 -9 9 -28 21 -43 43 -54 139
-24 139 44 0 28 -29 70 -49 70 -5 0 -15 2 -23 4 -7 3 -23 1 -34 -4z"/>
<path d="M703 2712 c-26 -4 -63 -47 -63 -72 0 -10 9 -29 21 -44 41 -52 139
-24 139 40 0 52 -42 85 -97 76z"/>
<path d="M1023 2712 c-26 -4 -63 -47 -63 -72 0 -10 9 -29 21 -44 41 -52 139
-24 139 40 0 52 -42 85 -97 76z"/>
<path d="M661 2364 c-25 -32 -26 -52 -5 -82 22 -32 57 -43 94 -31 82 29 59
139 -30 139 -30 0 -43 -6 -59 -26z"/>
<path d="M988 2373 c-56 -64 2 -149 82 -122 52 19 68 81 30 119 -26 26 -91 27
-112 3z"/>
<path d="M661 2044 c-24 -31 -26 -43 -10 -78 15 -33 59 -48 99 -34 82 28 59
138 -30 138 -30 0 -43 -6 -59 -26z"/>
<path d="M988 2053 c-56 -64 2 -149 82 -122 52 19 68 81 30 119 -26 26 -91 27
-112 3z"/>
<path d="M661 1724 c-24 -31 -26 -43 -10 -78 17 -36 69 -52 107 -32 74 38 45
136 -40 136 -28 0 -42 -7 -57 -26z"/>
<path d="M988 1733 c-40 -46 -27 -105 27 -123 79 -26 140 59 85 118 -26 28
-90 30 -112 5z"/>
<path d="M4185 2869 c-191 -21 -350 -162 -400 -356 -8 -31 -15 -75 -15 -96 0
-34 -8 -48 -61 -105 -72 -79 -143 -215 -164 -317 -12 -58 -15 -225 -15 -1012
l0 -942 26 -20 c43 -34 86 -24 112 26 9 16 12 262 12 945 0 1008 -2 979 58
1097 l27 54 5 -439 c4 -299 9 -450 17 -472 48 -136 168 -235 319 -263 89 -17
286 -6 353 19 109 42 189 121 233 229 22 57 23 67 28 493 l5 435 28 -62 c57
-128 57 -117 57 -1116 l0 -918 25 -24 c31 -32 69 -32 100 0 l25 24 0 926 c0
807 -2 936 -16 1003 -28 136 -88 253 -178 350 -39 42 -44 54 -51 111 -15 129
-74 245 -163 319 -106 89 -229 125 -367 111z m197 -175 c78 -40 129 -96 163
-178 l17 -39 -52 6 c-110 13 -221 108 -255 216 -7 24 -7 24 43 18 28 -3 66
-14 84 -23z m-272 -27 c0 -7 13 -39 29 -72 69 -145 210 -246 366 -263 l60 -7
3 -82 3 -83 -43 -1 c-132 -4 -223 19 -317 82 -113 76 -197 212 -203 333 -3 47
-1 51 40 83 42 32 62 35 62 10z m-88 -464 c57 -61 172 -136 252 -163 71 -23
190 -39 254 -32 l42 4 0 -120 0 -121 -57 -7 c-80 -11 -177 -9 -248 6 -86 17
-211 80 -282 142 l-62 53 0 189 -1 190 30 -47 c16 -26 49 -68 72 -94z m-17
-490 c139 -83 322 -123 477 -103 46 5 84 10 85 10 2 0 3 -56 3 -125 l0 -124
-37 -8 c-67 -13 -244 -7 -318 12 -81 20 -179 62 -247 106 l-48 31 0 125 c0 69
3 123 8 121 4 -1 39 -22 77 -45z m-17 -412 c133 -67 347 -110 471 -95 68 8 66
-8 -7 -52 -61 -37 -95 -44 -218 -44 -108 0 -175 18 -228 62 -45 37 -107 158
-81 158 3 0 31 -13 63 -29z"/>
<path d="M3150 1730 c-20 -20 -20 -33 -20 -854 l0 -835 26 -20 c15 -12 36 -21
48 -21 31 0 64 34 71 72 3 18 5 395 3 836 l-3 804 -24 19 c-30 25 -76 24 -101
-1z"/>
<path d="M205 378 c-41 -23 -44 -38 -45 -186 0 -139 1 -144 25 -167 13 -14 36
-25 50 -25 14 0 37 11 50 25 24 23 25 29 25 164 0 77 -3 147 -6 156 -6 15 -54
45 -71 45 -4 0 -17 -6 -28 -12z"/>
</g>
</svg>
